#!OML:ASF Y:\EmotionMaleHayes\Project 1\Capture day 1\Session 1\Male1.ASF
:FULLY-SPECIFIED
:DEGREES
52
root 12.5912 16.5503 -3.98655 -64.3474 78.0972 -67.9475
lowerback 16.7001 3.09951 8.66675
upperback 2.75404 6.1353 3.94631
thorax -5.9248 2.95377 -1.95923
lowerneck -27.5235 -0.856018 0.915423
upperneck 24.3399 -0.783321 -2.34331
head 12.6471 -0.558811 -1.19409
rclavicle -1.93815e-014 -1.35174e-014
rhumerus -22.5552 18.1087 -91.0028
rradius 87.2765
rwrist -8.35813
rhand -30.7697 -26.7248
rfingers 7.12502
rthumb -4.06079 -56.6658
lclavicle -1.93815e-014 -1.35174e-014
lhumerus -78.3472 -21.8938 102.711
lradius 78.7121
lwrist 15.5796
lhand -45.0904 -37.1391
lfingers 7.12502
lthumb -17.8706 -7.94016
rfemur 7.97803 1.23716 33.7794
rtibia 30.7673
rfoot -18.5727 -0.371693
rtoes 2.28369
lfemur -40.1791 10.6262 -5.86451
ltibia 87.4417
lfoot 142.485 -67.4249
ltoes -8.63312
53
root 13.267 16.6346 -4.04893 -63.9356 77.8168 -67.1514
lowerback 16.5962 3.50648 9.57449
upperback 2.60112 6.79657 3.6415
thorax -5.83013 3.25078 -2.89559
lowerneck -26.9465 -1.46965 0.618799
upperneck 24.4461 -1.67004 -1.8299
head 12.568 -0.898448 -1.10368
rclavicle -3.08116e-015 5.725e-014
rhumerus -22.2602 17.8405 -90.9905
rradius 89.2692
rwrist -9.46194
rhand -31.3263 -26.7282
rfingers 7.12502
rthumb -4.59823 -56.6583
lclavicle -3.08116e-015 5.725e-014
lhumerus -80.9374 -22.7472 102.824
lradius 79.019
lwrist 15.3069
lhand -45.4014 -37.1908
lfingers 7.12502
lthumb -18.1698 -8.01943
rfemur 11.3712 1.2226 33.055
rtibia 28.9542
rfoot -15.098 0.326255
rtoes 2.04697
lfemur -41.7212 10.3482 -5.86089
ltibia 89.1728
lfoot 38.9327 -75.0656
ltoes -9.20558
54
root 13.9481 16.7262 -4.11171 -62.7324 77.5206 -65.4588
lowerback 16.6838 3.97097 10.3517
upperback 2.43343 7.53454 3.3187
thorax -5.832 3.58076 -3.80368
lowerneck -26.4962 -2.01553 0.30092
upperneck 24.7664 -2.47753 -1.23126
head 12.61 -1.19113 -0.965086
rclavicle -1.36167e-014 -2.3059e-014
rhumerus -22.2972 17.7056 -90.9905
rradius 91.4118
rwrist -10.8611
rhand -31.6734 -26.9151
rfingers 7.12502
rthumb -4.93342 -56.8377
lclavicle -1.36167e-014 -2.3059e-014
lhumerus -83.4641 -23.4765 102.829
lradius 79.3155
lwrist 15.144
lhand -45.6155 -37.2003
lfingers 7.12502
lthumb -18.3758 -8.04824
rfemur 14.596 1.18186 32.0992
rtibia 27.2802
rfoot -11.0644 1.00933
rtoes 3.39245
lfemur -42.533 10.1293 -5.85163
ltibia 86.9491
lfoot 4.80202 -48.9623
ltoes -8.10928
55
root 14.6263 16.8102 -4.17036 -60.4007 77.172 -62.9692
lowerback 16.3503 4.55828 10.8008
upperback 2.313 8.31999 3.07613
thorax -5.57568 3.96003 -4.40226
lowerneck -26.5498 -2.4793 -0.0337325
upperneck 25.237 -3.17461 -0.623647
head 12.8208 -1.43321 -0.809005
rclavicle 1.25234e-014 3.26007e-014
rhumerus -22.0062 17.8835 -90.6
rradius 93.3434
rwrist -12.2563
rhand -31.6677 -28.2243
rfingers 7.12502
rthumb -4.92787 -58.147
lclavicle 1.25234e-014 3.26007e-014
lhumerus -85.6482 -24.0274 102.768
lradius 79.6339
lwrist 15.4078
lhand -45.6196 -37.6695
lfingers 7.12502
lthumb -18.3797 -8.51782
rfemur 17.3343 1.34167 31.0433
rtibia 25.6107
rfoot -6.11637 1.45532
rtoes 10.4103
lfemur -43.2781 10.1674 -5.83409
ltibia 81.4331
lfoot -4.50888 -20.4344
ltoes -6.22234
56
root 15.3005 16.8749 -4.22127 -55.9063 76.5065 -58.7467
lowerback 15.5858 5.42062 10.9937
upperback 2.11 9.36503 2.85237
thorax -5.15705 4.48024 -4.81725
lowerneck -26.6912 -2.92397 -0.161137
upperneck 25.8252 -3.80559 -0.429189
head 13.0917 -1.67991 -0.838543
rclavicle -8.28932e-014 -2.38542e-014
rhumerus -21.6427 18.2185 -89.9775
rradius 95.1413
rwrist -13.8725
rhand -31.5453 -29.4356
rfingers 7.12502
rthumb -4.80972 -59.361
lclavicle -8.28932e-014 -2.38542e-014
lhumerus -87.7644 -24.5015 102.596
lradius 80.2583
lwrist 15.7998
lhand -45.503 -37.938
lfingers 7.12502
lthumb -18.2676 -8.77578
rfemur 19.3789 2.0779 30.0624
rtibia 24.2016
rfoot -2.334 2.42711
rtoes 17.0509
lfemur -44.0985 10.9677 -5.70334
ltibia 75.2719
lfoot -11.3952 8.14053
ltoes -5.58873
57
root 16.0056 16.9681 -4.29601 -58.8949 76.9797 -60.7927
lowerback 15.7716 5.42853 11.805
upperback 2.21399 9.50807 2.55639
thorax -4.94072 4.55333 -5.58752
lowerneck -27.1185 -3.41518 -0.142293
upperneck 26.8535 -4.49996 -0.445654
head 13.5984 -1.95438 -1.00182
rclavicle -1.24737e-014 3.26007e-014
rhumerus -21.5123 18.6122 -89.4225
rradius 96.9452
rwrist -15.8382
rhand -31.3594 -29.5135
rfingers 7.12502
rthumb -4.63023 -59.4429
lclavicle -1.24737e-014 3.26007e-014
lhumerus -89.8105 -24.9836 102.259
lradius 80.9485
lwrist 16.2401
lhand -45.3409 -37.74
lfingers 7.12502
lthumb -18.1117 -8.56328
rfemur 23.0162 1.60741 29.0217
rtibia 22.4527
rfoot 0.888593 2.43287
rtoes 24.2719
lfemur -43.118 9.51717 -5.85767
ltibia 69.1554
lfoot -11.9521 9.30937
ltoes -6.20387
58
root 16.6873 17.0342 -4.35423 -56.6286 76.8298 -58.5491
lowerback 15.2279 5.98526 12.0477
upperback 2.01113 10.1788 2.2088
thorax -4.64044 4.88517 -6.10208
lowerneck -27.128 -3.87769 -0.551473
upperneck 27.4446 -5.27791 0.453418
head 13.8942 -2.17789 -0.735421
rclavicle -2.54941e-014 -8.15017e-015
rhumerus -21.4925 19.242 -88.8499
rradius 98.7382
rwrist -17.9884
rhand -31.3508 -29.2491
rfingers 7.12502
rthumb -4.62189 -59.1786
lclavicle -2.54941e-014 -8.15017e-015
lhumerus -91.7631 -25.3873 101.733
lradius 81.5805
lwrist 16.7137
lhand -45.1551 -37.8088
lfingers 7.12502
lthumb -17.9328 -8.61556
rfemur 24.9529 2.44561 28.3299
rtibia 22.0222
rfoot 1.1365 2.29408
rtoes 23.3048
lfemur -42.9551 9.54023 -5.91886
ltibia 63.1876
lfoot -12.555 9.80807
ltoes -4.79803
59
root 17.3698 17.0976 -4.40722 -53.6859 76.9015 -55.6782
lowerback 14.6371 6.53282 11.8794
upperback 1.71643 10.7643 1.78063
thorax -4.47353 5.168 -6.46282
lowerneck -26.9796 -4.26204 -0.692949
upperneck 28.1682 -5.95813 1.03106
head 14.2085 -2.36946 -0.618497
rclavicle -1.04511e-013 -3.39922e-014
rhumerus -21.7982 19.9208 -88.4484
rradius 100.567
rwrist -19.4331
rhand -31.438 -28.4112
rfingers 7.12502
rthumb -4.70605 -58.3389
lclavicle -1.04511e-013 -3.39922e-014
lhumerus -93.6853 -25.6111 101.024
lradius 82.1849
lwrist 16.9458
lhand -44.9732 -37.9979
lfingers 7.12502
lthumb -17.7579 -8.78871
rfemur 26.5158 3.56778 27.715
rtibia 22.3717
rfoot 0.724375 1.53428
rtoes 21.7848
lfemur -42.2944 9.45826 -6.22831
ltibia 56.6431
lfoot -12.7113 10.2756
ltoes -5.57774
60
root 18.0491 17.1529 -4.44655 -51.1953 76.6854 -53.1562
lowerback 14.1917 7.0557 11.7865
upperback 1.43424 11.3649 1.45689
thorax -4.37189 5.45565 -6.76632
lowerneck -26.738 -4.62094 -0.917352
upperneck 28.7045 -6.59985 1.6915
head 14.4405 -2.54388 -0.441069
rclavicle -7.64824e-014 1.00386e-014
rhumerus -22.1783 20.5922 -88.1867
rradius 102.115
rwrist -20.0307
rhand -30.7626 -28.5205
rfingers 7.12502
rthumb -4.05387 -58.4617
lclavicle -7.64824e-014 1.00386e-014
lhumerus -95.3233 -25.6717 100.024
lradius 82.795
lwrist 16.7804
lhand -44.7148 -37.7617
lfingers 7.12502
lthumb -17.5092 -8.53018
rfemur 27.7159 4.93246 27.8386
rtibia 23.8083
rfoot 0.124128 -0.158629
rtoes 20.7442
lfemur -41.0583 9.66534 -6.10172
ltibia 49.6066
lfoot -12.4271 10.2053
ltoes -6.53707
61
root 18.7278 17.1963 -4.48073 -48.7496 76.5204 -50.7757
lowerback 13.5943 7.57308 11.6098
upperback 1.23977 11.9229 1.13825
thorax -4.11281 5.74185 -6.97151
lowerneck -26.629 -5.035 -1.31913
upperneck 29.0215 -7.27251 2.40801
head 14.6259 -2.74889 -0.218417
rclavicle 3.56011e-014 -3.81418e-014
rhumerus -22.2989 21.2481 -87.7811
rradius 103.33
rwrist -20.6158
rhand -30.1783 -27.443
rfingers 7.12502
rthumb -3.48968 -57.3942
lclavicle 3.56011e-014 -3.81418e-014
lhumerus -96.4662 -25.7437 98.7372
lradius 83.5528
lwrist 16.4537
lhand -44.3222 -37.3609
lfingers 7.12502
lthumb -17.1313 -8.09613
rfemur 28.4634 6.20206 28.0307
rtibia 26.1843
rfoot 0.0897596 -2.4718
rtoes 22.0809
lfemur -39.606 9.96811 -6.06709
ltibia 42.2013
lfoot -12.2912 9.70904
ltoes -6.81599
62
root 19.3996 17.2253 -4.49342 -50.4427 74.4149 -51.5463
lowerback 14.2759 7.92444 13.184
upperback 1.27591 12.7575 1.47619
thorax -4.03606 6.13925 -7.60317
lowerneck -26.5349 -5.37193 -1.51512
upperneck 29.1874 -7.84298 2.88128
head 14.731 -2.93043 -0.107343
rclavicle 6.03995e-014 2.42517e-014
rhumerus -22.6943 21.8768 -87.666
rradius 104.551
rwrist -20.8495
rhand -29.7736 -27.0526
rfingers 7.12502
rthumb -3.09878 -57.0098
lclavicle 6.03995e-014 2.42517e-014
lhumerus -97.2698 -25.7389 97.2947
lradius 84.3032
lwrist 16.1424
lhand -44.006 -36.9704
lfingers 7.12502
lthumb -16.827 -7.67946
rfemur 29.7842 7.88745 31.0512
rtibia 29.5889
rfoot -0.649205 -4.49656
rtoes 22.3457
lfemur -36.4682 11.2649 -3.08681
ltibia 34.6331
lfoot -12.9484 9.05288
ltoes -8.64514
63
root 20.0683 17.242 -4.51907 -47.7807 74.2704 -48.9038
lowerback 13.8003 8.31022 12.5516
upperback 1.05313 13.0896 1.22072
thorax -4.02114 6.30146 -7.50838
lowerneck -26.2598 -5.45514 -1.45161
upperneck 29.2618 -8.08445 3.15953
head 14.7274 -2.97926 -0.0457383
rclavicle 1.2424e-013 -3.03147e-014
rhumerus -23.3989 22.7724 -87.9147
rradius 105.549
rwrist -20.4561
rhand -29.651 -26.8048
rfingers 7.12502
rthumb -2.98038 -56.7637
lclavicle 1.2424e-013 -3.03147e-014
lhumerus -98.0875 -25.4369 95.7793
lradius 84.874
lwrist 15.4531
lhand -43.9242 -36.8501
lfingers 7.12502
lthumb -16.7482 -7.55255
rfemur 30.1376 8.97449 31.1099
rtibia 32.9007
rfoot -0.657457 -6.04035
rtoes 21.2902
lfemur -34.4133 11.5851 -3.06831
ltibia 27.0064
lfoot -12.3775 8.39555
ltoes -10.0307
64
root 20.7397 17.2432 -4.55136 -43.8816 74.7797 -45.4732
lowerback 12.7066 8.7146 11.305
upperback 0.782181 13.272 0.814412
thorax -3.84963 6.41119 -7.13316
lowerneck -26.2107 -5.52939 -1.57824
upperneck 29.4391 -8.20473 3.34347
head 14.8183 -3.00731 0.026664
rclavicle -1.30179e-013 1.82882e-014
rhumerus -23.7213 23.9735 -87.8371
rradius 106.022
rwrist -20.0463
rhand -29.9571 -25.8205
rfingers 7.12502
rthumb -3.27599 -55.7751
lclavicle -1.30179e-013 1.82882e-014
lhumerus -98.7181 -25.1399 94.4359
lradius 85.2748
lwrist 14.5458
lhand -44.0523 -37.1377
lfingers 7.12502
lthumb -16.8715 -7.85063
rfemur 30.0233 9.54535 29.9563
rtibia 36.1307
rfoot -0.999194 -6.88362
rtoes 18.9838
lfemur -33.1691 11.4995 -4.15909
ltibia 19.9396
lfoot -12.6796 8.032
ltoes -11.036
65
root 21.4163 17.2254 -4.58411 -41.2373 74.9795 -43.2146
lowerback 11.5363 9.01552 10.5397
upperback 0.666598 13.4077 0.569949
thorax -3.41536 6.51757 -6.79046
lowerneck -26.4365 -5.61656 -1.85159
upperneck 29.6757 -8.28597 3.52077
head 15.0017 -3.03194 0.120998
rclavicle 1.38404e-014 -1.35174e-014
rhumerus -25.0917 24.2658 -88.3102
rradius 107.115
rwrist -19.2298
rhand -29.4018 -26.8792
rfingers 7.12502
rthumb -2.73971 -56.8414
lclavicle 1.38404e-014 -1.35174e-014
lhumerus -98.7936 -24.8237 93.123
lradius 85.4693
lwrist 13.7067
lhand -44.32 -37.3774
lfingers 7.12502
lthumb -17.1292 -8.11247
rfemur 29.7953 9.49244 28.6072
rtibia 39.5153
rfoot -0.991206 -8.01085
rtoes 23.8921
lfemur -32.1079 11.2819 -4.73076
ltibia 14.3702
lfoot -13.2187 7.67538
ltoes -6.57967
66
root 22.0837 17.1876 -4.61473 -41.1913 74.6554 -43.4397
lowerback 10.5682 9.07577 10.5756
upperback 0.554339 13.3808 0.567334
thorax -3.0008 6.52938 -6.6306
lowerneck -26.449 -5.57811 -1.61819
upperneck 29.7544 -8.26946 3.32969
head 15.015 -3.02418 0.00679808
rclavicle -3.52843e-015 -3.12092e-014
rhumerus -26.4588 25.0463 -89.0238
rradius 107.7
rwrist -18.5027
rhand -29.4955 -25.9138
rfingers 7.12502
rthumb -2.83025 -55.8748
lclavicle -3.52843e-015 -3.12092e-014
lhumerus -98.5103 -24.2063 91.6881
lradius 85.47
lwrist 12.8001
lhand -44.6117 -37.3061
lfingers 7.12502
lthumb -17.41 -8.0658
rfemur 29.3392 9.35485 28.312
rtibia 43.5408
rfoot -1.7196 -8.50689
rtoes 23.3297
lfemur -31.3193 11.0057 -4.21146
ltibia 10.1063
lfoot -12.9966 8.18829
ltoes -5.78923
